<?xml version="1.0" encoding="utf-8"?>
<!-- Generator: Adobe Illustrator 25.0.0, SVG Export Plug-In . SVG Version: 6.00 Build 0)  -->
<svg version="1.1" baseProfile="basic" id="Layer_1"
	 xmlns="http://www.w3.org/2000/svg" xmlns:xlink="http://www.w3.org/1999/xlink" x="0px" y="0px" viewBox="0 0 1802.64 931.54"
	 xml:space="preserve">
<g>
	<g>
		<g>
			<g>
				<path fill="#FFFFFF" d="M0,426.66h54.94c12.71,0,23.84,8.55,27.11,20.84l53.6,201.29l70.29-203.24
					c3.91-11.3,14.55-18.88,26.51-18.88h8.9c11.96,0,22.6,7.58,26.51,18.88l70.29,203.24l53.6-201.29
					c3.27-12.29,14.4-20.84,27.11-20.84h54.94L370.95,760.32h-57.54l-76.51-224.05l-76.5,224.05h-57.54L0,426.66z"/>
				<path fill="#FFFFFF" d="M630.2,292.93h61.16v76.83h-76.51v-61.48C614.86,299.8,621.73,292.93,630.2,292.93z M631.61,426.66
					h59.75v333.67h-76.51V443.41C614.86,434.16,622.36,426.66,631.61,426.66z"/>
				<path fill="#FFFFFF" d="M1175.31,747.63c-22.08-11.68-38.9-28.72-50.47-51.11c-11.57-22.39-17.36-49.45-17.36-81.17v-45.32
					c0-31.29,5.79-58.02,17.36-80.2c11.57-22.18,28.39-39.06,50.47-50.63c22.07-11.57,48.64-17.36,79.72-17.36
					c17.79,0,34.56,2.09,50.31,6.27s29.89,10.24,42.43,18.16c12.53,7.93,22.98,17.58,31.34,28.93l-37.1,34.81
					c-8.06,7.56-20.18,8.09-29.28,1.83c-5.14-3.54-10.66-6.54-16.55-9c-11.79-4.93-24.11-7.39-36.97-7.39
					c-23.79,0-42.22,6.48-55.29,19.45c-13.07,12.97-19.61,31.34-19.61,55.13v45.32c0,24.43,6.48,43.24,19.45,56.42
					c12.96,13.18,31.45,19.77,55.45,19.77c13.07,0,25.5-2.68,37.29-8.04c4.43-2.01,8.64-4.35,12.62-7
					c11.64-7.76,27.01-6.74,36.9,3.16l33.1,33.1c-8.58,11.15-19.13,20.63-31.66,28.45c-12.53,7.82-26.68,13.77-42.43,17.84
					c-15.75,4.07-32.42,6.1-49.99,6.1C1223.96,765.14,1197.38,759.31,1175.31,747.63z"/>
			</g>
			<g>
				<g>
					<rect x="888" fill="#FFFFFF" width="4.02" height="149.15"/>
					<rect x="905.41" y="59.54" fill="#FFFFFF" width="10.06" height="85.08"/>
					<rect x="902.85" y="48.54" fill="#FFFFFF" width="15.18" height="31.54"/>
					<rect x="929.47" y="95.85" fill="#FFFFFF" width="2.51" height="48.77"/>
					<path fill="#FFFFFF" d="M867.38,142.19v23.78l50.62,1.46l50.62-1.46v-23.78C935.04,137.69,900.97,137.69,867.38,142.19z"/>
					<polygon fill="#FFFFFF" points="974.46,303.65 954.36,303.65 892.02,303.65 871.91,303.65 871.91,334.48 884.35,334.48 
						884.35,759.59 962.03,759.59 962.03,334.48 974.46,334.48 					"/>
					<g>
						<g>
							<polygon fill="#FFFFFF" points="1009.64,303.62 836.74,303.62 815.67,171.58 819.09,171.29 839.8,301.1 1006.58,301.1 
								1027.29,171.29 1030.7,171.58 							"/>
						</g>
						<g>
							<polygon fill="#FFFFFF" points="857.78,302.46 842.12,170.54 845.55,170.32 861.21,302.25 							"/>
						</g>
						<g>
							<polygon fill="#FFFFFF" points="879.01,302.43 868.57,169.5 872,169.36 882.45,302.28 							"/>
						</g>
						<g>
							<polygon fill="#FFFFFF" points="900.24,302.39 895.02,168.46 898.46,168.39 903.68,302.32 							"/>
						</g>
						<g>
							<polygon fill="#FFFFFF" points="988.59,302.46 985.16,302.25 1000.83,170.32 1004.26,170.54 							"/>
						</g>
						<g>
							<polygon fill="#FFFFFF" points="967.37,302.43 963.93,302.28 974.37,169.36 977.81,169.5 							"/>
						</g>
						<g>
							<polygon fill="#FFFFFF" points="946.14,302.39 942.7,302.32 947.92,168.39 951.36,168.46 							"/>
						</g>
						<g>
							<rect x="921.47" y="167.43" fill="#FFFFFF" width="3.44" height="134.93"/>
						</g>
					</g>
					<g>
						<g>
							<path fill="#FFFFFF" d="M1023.62,216.36c-0.43-0.07-43.59-6.97-100.43-6.97c-56.85,0-100,6.9-100.43,6.97l-0.57-3.28
								c0.43-0.07,43.85-7.01,101-7.01c57.15,0,100.57,6.94,101,7.01L1023.62,216.36z"/>
						</g>
						<g>
							<path fill="#FFFFFF" d="M1018.03,248.99c-0.52-0.05-52.87-5.23-94.7-5.23c-41.83,0-94.17,5.18-94.7,5.23l-0.34-3.3
								c0.53-0.05,53.04-5.25,95.04-5.25c42,0,94.51,5.2,95.04,5.25L1018.03,248.99z"/>
						</g>
						<g>
							<path fill="#FFFFFF" d="M1012.68,281.61c-0.62-0.04-61.93-3.49-89.35-3.49c-27.42,0-88.73,3.46-89.35,3.49l-0.19-3.32
								c0.62-0.03,62.02-3.5,89.53-3.5c27.51,0,88.92,3.46,89.53,3.5L1012.68,281.61z"/>
						</g>
					</g>
					<path fill="#FFFFFF" d="M1039.85,185.73c0.44-5.91,0.88-11.82,1.32-17.73c0.19-2.58-1.69-4.89-4.33-5.31
						c-79-12.45-158.66-12.45-237.65,0c-2.65,0.42-4.53,2.73-4.33,5.31l1.32,17.74c0.22,2.93,2.99,5.04,6.01,4.58
						c77.02-11.83,154.65-11.83,231.67,0C1036.85,190.77,1039.63,188.67,1039.85,185.73z"/>
				</g>
				<g>
					<g>
						<g>
							<g>
								<path fill="#FCBD0B" d="M1231.18,315.66c-0.37,0-0.73-0.04-1.09-0.13c-1.31-0.32-2.42-1.18-3.05-2.38l-33.94-64.7
									l-32.14,22.74l3.07,20.04c0.27,1.75-0.48,3.51-1.92,4.53l-16.92,11.97c-1.18,0.83-2.67,1.07-4.05,0.66
									c-1.38-0.41-2.49-1.44-3.01-2.79l-15.05-38.73l-31.51-27.09c-1.09-0.94-1.69-2.33-1.62-3.77c0.07-1.44,0.8-2.77,1.97-3.6
									l16.92-11.97c1.45-1.02,3.35-1.14,4.91-0.31l17.88,9.57l32.14-22.74l-49.71-53.54c-0.92-0.99-1.36-2.33-1.22-3.67
									c0.14-1.34,0.85-2.56,1.95-3.34l16.92-11.97c1.57-1.1,3.64-1.15,5.25-0.11l67.6,43.77l40.05-28.33
									c13.13-9.29,30.08-10.34,44.26-2.75c1.3,0.69,2.19,1.96,2.42,3.42c2.44,15.89-4.2,31.53-17.33,40.82l-40.05,28.33
									l18.77,78.32c0.45,1.86-0.29,3.81-1.85,4.91l-16.92,11.97C1233.08,315.37,1232.13,315.66,1231.18,315.66z M1194.75,236.87
									c0.37,0,0.73,0.04,1.09,0.13c1.31,0.32,2.42,1.18,3.05,2.38l33.94,64.7l9.97-7.05l-18.77-78.32
									c-0.45-1.86,0.29-3.81,1.85-4.91l42.63-30.16c9.56-6.76,14.7-17.86,13.76-29.39c-10.56-4.72-22.73-3.57-32.29,3.19
									l-42.63,30.16c-1.57,1.1-3.64,1.15-5.25,0.11l-67.6-43.77l-9.97,7.05l49.71,53.54c0.92,0.99,1.36,2.33,1.22,3.67
									c-0.14,1.34-0.85,2.56-1.95,3.34l-38.87,27.49c-1.45,1.02-3.35,1.14-4.91,0.31l-17.88-9.57l-9.67,6.84l27.85,23.95
									c0.58,0.5,1.03,1.14,1.31,1.85l13.31,34.24l9.66-6.84l-3.07-20.04c-0.27-1.75,0.48-3.51,1.92-4.53l38.87-27.49
									C1192.84,237.17,1193.79,236.87,1194.75,236.87z"/>
							</g>
						</g>
					</g>
					<g>
						<g>
							<g>
								<path fill="#FCBD0B" d="M1242.73,271.36c-0.56,0-1.12-0.1-1.65-0.3c-1.45-0.55-2.54-1.78-2.9-3.29l-5.2-21.71
									c-0.45-1.86,0.29-3.81,1.85-4.91l3.58-2.53c3.28-2.32,7.27-3.23,11.23-2.55c3.96,0.68,7.42,2.86,9.74,6.14v0
									c4.79,6.77,3.18,16.18-3.59,20.97l-10.34,7.32C1244.63,271.07,1243.69,271.36,1242.73,271.36z M1242.82,246.96l2.85,11.9
									l4.7-3.33c2.56-1.81,3.16-5.36,1.36-7.92l0,0c-0.88-1.24-2.18-2.06-3.68-2.32c-1.5-0.25-3,0.08-4.24,0.96L1242.82,246.96z"
									/>
							</g>
						</g>
					</g>
					<g>
						<g>
							<g>
								<path fill="#FCBD0B" d="M1183.67,173.52c-0.88,0-1.77-0.25-2.54-0.75l-18.74-12.13c-1.3-0.84-2.1-2.28-2.14-3.83
									s0.71-3.02,1.98-3.92l10.34-7.32c3.28-2.32,7.26-3.23,11.23-2.55c3.96,0.68,7.42,2.86,9.74,6.14
									c2.32,3.28,3.23,7.27,2.55,11.23c-0.68,3.96-2.86,7.42-6.14,9.74l-3.58,2.53C1185.56,173.23,1184.62,173.52,1183.67,173.52z
									 M1173.28,156.53l10.28,6.65l0.99-0.7c1.24-0.88,2.06-2.18,2.32-3.68c0.26-1.5-0.08-3-0.96-4.24v0
									c-0.88-1.24-2.18-2.06-3.68-2.32c-1.5-0.26-3,0.09-4.24,0.96L1173.28,156.53z"/>
							</g>
						</g>
					</g>
				</g>
			</g>
		</g>
		<path fill="#FFFFFF" d="M1785.53,487.89c-11.04-21.54-27.11-37.93-48.22-49.18c-21.11-11.25-46.45-16.88-76.02-16.88
			c-29.57,0-54.92,5.63-76.03,16.88c-21.11,11.25-37.18,27.65-48.22,49.18c-11.04,21.54-16.55,47.41-16.55,77.63v54.33
			c0,30.65,5.52,56.85,16.55,78.59c11.04,21.76,27.11,38.31,48.22,49.66c21.11,11.36,46.45,17.04,76.03,17.04
			c29.57,0,54.91-5.67,76.02-17.04c21.11-11.36,37.18-27.8,48.22-49.34c11.04-21.54,16.55-47.52,16.55-77.95v-55.29
			C1802.08,535.31,1796.56,509.43,1785.53,487.89z M1765.72,628.4c-0.21,0.3-0.46,0.58-0.74,0.83c-1.02,0.9-2.38,1.31-3.73,1.13
			l-73.02-9.67l0.03,39.69l18.29,9.13c1.6,0.8,2.61,2.43,2.61,4.22l0.02,20.89c0,1.45-0.67,2.82-1.81,3.72
			c-1.14,0.9-2.64,1.21-4.05,0.86l-40.65-10.13l-40.63,10.2c-1.41,0.35-2.9,0.04-4.05-0.85c-1.15-0.89-1.82-2.26-1.82-3.72
			l-0.02-20.89c0-1.79,1.01-3.42,2.6-4.22l18.28-9.16l-0.03-39.69l-73,9.8c-1.35,0.18-2.71-0.23-3.73-1.12
			c-1.02-0.89-1.61-2.19-1.61-3.55l-0.02-20.89c0-1.93,1.17-3.66,2.96-4.38l29.97-12.02l-0.01-10.81c0-4.05,1.56-7.86,4.43-10.73
			c2.86-2.87,6.67-4.45,10.72-4.45c4.05,0,7.86,1.57,10.73,4.43c2.56,2.56,4.03,5.89,4.33,9.45l15.19-6.09l-0.04-49.45
			c-0.01-16.21,8.98-30.78,23.47-38.05c1.33-0.66,2.89-0.67,4.22,0c14.5,7.23,23.52,21.8,23.54,38l0.04,49.45l18.3,7.3
			c0.01-4.04,1.58-7.84,4.43-10.69c2.86-2.86,6.67-4.45,10.72-4.45l0,0c8.36-0.01,15.17,6.79,15.18,15.15l0.01,12.1l26.78,10.68
			c1.79,0.71,2.97,2.45,2.97,4.38l0.02,20.89C1766.58,626.66,1766.27,627.61,1765.72,628.4z"/>
	</g>
	<path fill="#FCBD0B" d="M1313.27,819.44h489.37v112.1H1344.6l-50.45-76.59C1284.11,839.72,1295.04,819.44,1313.27,819.44z"/>
</g>
<g>
	<g>
		<g>
			<path fill="#0D2E59" d="M1524.48,830.96h16.54v82.39c0,3.43-2.78,6.2-6.2,6.2h-10.34V830.96z M1531.06,867.85h30.54
				c1.69,0,3.18-0.43,4.47-1.28c1.29-0.85,2.28-2.07,2.99-3.65s1.08-3.41,1.12-5.48c0-2.07-0.35-3.9-1.06-5.48
				c-0.71-1.58-1.7-2.8-2.99-3.65c-1.29-0.85-2.8-1.28-4.53-1.28h-30.54v-16.07h31.87c4.83,0,9.07,1.1,12.74,3.29
				c3.66,2.19,6.5,5.29,8.51,9.29c2.01,4,3.02,8.64,3.02,13.91c0,5.28-1.01,9.91-3.02,13.91c-2.01,4-4.86,7.09-8.54,9.29
				c-3.68,2.19-7.92,3.29-12.71,3.29h-31.87V867.85z M1549.53,881.19l6.67-1.06c6.63-1.05,13.23,2.1,16.58,7.93l18.1,31.49h-14.99
				c-3.12,0-5.99-1.69-7.5-4.41L1549.53,881.19z"/>
		</g>
		<g>
			<path fill="#0D2E59" d="M1617.69,830.99h16.55v82.35c0,3.43-2.78,6.21-6.21,6.21h-10.34V830.99z M1625.23,869.12h28.08
				c1.97,0,3.72-0.46,5.22-1.37s2.69-2.2,3.53-3.87c0.85-1.66,1.27-3.57,1.27-5.73c0-2.19-0.41-4.13-1.24-5.82
				c-0.83-1.68-1.99-2.99-3.5-3.9c-1.51-0.91-3.27-1.37-5.28-1.37h-28.08v-16.08h27.66c5.47,0,10.29,1.13,14.46,3.38
				c4.17,2.25,7.4,5.43,9.69,9.53c2.29,4.1,3.44,8.85,3.44,14.25c0,5.4-1.15,10.14-3.44,14.22c-2.3,4.08-5.53,7.24-9.69,9.47
				c-4.17,2.23-8.99,3.35-14.46,3.35h-27.66V869.12z"/>
		</g>
	</g>
	<g>
		<path fill="#0D2E59" d="M1440.82,914.61c-6.11-3.29-10.75-8.08-13.93-14.36c-3.18-6.29-4.77-13.85-4.77-22.7v-4.98
			c0-8.79,1.59-16.28,4.77-22.48c3.18-6.2,7.83-10.93,13.93-14.19s13.44-4.89,22-4.89c4.92,0,9.56,0.57,13.93,1.7
			c4.37,1.13,8.29,2.78,11.76,4.93c3.47,2.15,6.36,4.77,8.68,7.86l-10.35,6.95c-2.82,1.89-6.42,1.85-9.38,0.18
			c-1.06-0.6-2.18-1.12-3.36-1.58c-2.95-1.13-6.05-1.7-9.29-1.7c-6.02,0-10.68,1.61-13.97,4.84c-3.3,3.23-4.95,7.79-4.95,13.67v9.69
			c0,6.05,1.65,15.43,4.95,18.72c3.3,3.29,7.96,4.93,13.97,4.93c3.3,0,6.42-0.61,9.37-1.83c1.18-0.49,2.3-1.06,3.35-1.72
			c3.04-1.9,6.99-1.55,9.9,0.56l9.76,7.1c-2.37,3.03-5.3,5.6-8.77,7.73c-3.47,2.13-7.38,3.74-11.72,4.85
			c-4.34,1.1-8.97,1.66-13.89,1.66C1454.25,919.55,1446.92,917.9,1440.82,914.61z"/>
	</g>
</g>
</svg>
